<svg width="21" height="20" viewBox="0 0 21 20" fill="none" xmlns="http://www.w3.org/2000/svg">
<path d="M9.70401 19.7301L9.45701 19.5801C7.27513 18.2297 5.24829 16.6435 3.41301 14.8501C2.05811 13.4983 1.03173 11.8533 0.413014 10.0421C-0.199775 8.22394 -0.128672 6.24467 0.613011 4.47513C0.971165 3.63679 1.50541 2.88529 2.17952 2.27157C2.85363 1.65785 3.65185 1.19625 4.52002 0.918119C5.3912 0.636612 6.3115 0.539877 7.22218 0.634061C8.13286 0.728245 9.01388 1.01128 9.80901 1.46512L10.078 1.62515L10.348 1.46414C11.1017 1.03514 11.9326 0.758997 12.7932 0.651578C13.6537 0.54416 14.527 0.607539 15.363 0.838102L15.631 0.918119C16.5001 1.19689 17.2991 1.65937 17.9738 2.27414C18.6484 2.8889 19.1829 3.64156 19.541 4.48111C20.2833 6.25437 20.3544 8.23725 19.741 10.0591C19.1156 11.8633 18.09 13.5026 16.741 14.8542C14.9051 16.6445 12.8784 18.228 10.697 19.5761L10.466 19.7211C10.3509 19.7926 10.2183 19.831 10.0829 19.8321C9.94737 19.8331 9.81421 19.7968 9.69801 19.7271L9.70401 19.7301ZM4.96901 2.33011C4.29159 2.54857 3.66974 2.91171 3.14656 3.39432C2.62337 3.87692 2.21134 4.46752 1.93902 5.12515C1.36172 6.54588 1.31522 8.12693 1.80801 9.57913C2.35701 11.1657 3.25705 12.6078 4.44101 13.7981C6.19669 15.5101 8.13496 17.0241 10.221 18.3131L10.076 18.2221L10.547 17.9221C12.1926 16.8544 13.7413 15.644 15.175 14.3051L15.707 13.7991C16.8914 12.6129 17.7919 11.1739 18.341 9.59012C18.8348 8.13602 18.7883 6.55271 18.21 5.13009C17.9374 4.47141 17.5249 3.87986 17.001 3.39639C16.4771 2.91292 15.8544 2.5491 15.176 2.33011C14.3927 2.07762 13.5601 2.01754 12.7486 2.15487C11.9371 2.29221 11.1706 2.62293 10.514 3.11911C10.3887 3.21311 10.2366 3.26471 10.08 3.26632C9.92333 3.26794 9.77025 3.21953 9.64301 3.12814L9.44301 2.98514C8.79712 2.54004 8.05756 2.24939 7.28145 2.13565C6.50533 2.0219 5.71346 2.08809 4.96701 2.32913L4.96901 2.33011ZM14.9 7.7861C14.8693 7.39195 14.7226 7.01575 14.4782 6.70498C14.2338 6.39422 13.9028 6.16287 13.527 6.04013C13.3436 5.98167 13.1901 5.85404 13.0993 5.68429C13.0084 5.51454 12.9873 5.31602 13.0404 5.13095C13.0935 4.94588 13.2166 4.78884 13.3837 4.69308C13.5507 4.59733 13.7485 4.57044 13.935 4.61813L13.975 4.63113C14.6294 4.84411 15.206 5.24628 15.6319 5.78683C16.0579 6.32738 16.314 6.98205 16.368 7.66812C16.3846 7.86341 16.3231 8.05732 16.197 8.2073C16.0708 8.35728 15.8903 8.45107 15.695 8.46811H15.632C15.4466 8.46737 15.2682 8.39676 15.1326 8.27035C14.9969 8.14394 14.9139 7.97102 14.9 7.7861Z" fill="#fff"/>
</svg>
