<svg width="20" height="17" viewBox="0 0 20 17" fill="#fff" xmlns="http://www.w3.org/2000/svg">
<path d="M19.3009 5.61806C19.2977 7.09064 18.8222 8.57275 18.0173 9.95722C16.8305 11.999 15.1475 13.5621 13.178 14.8148C12.1539 15.4665 11.0592 16.0071 9.99068 16.5866C9.89542 16.6382 9.73427 16.6517 9.63821 16.6073C7.48689 15.6134 5.47687 14.3996 3.76375 12.7405C2.21336 11.2393 1.02974 9.50791 0.505005 7.38437C0.0985555 5.7411 0.19858 4.13833 1.01942 2.62843C2.10302 0.633493 4.00905 -0.135745 6.29612 0.475517C7.40115 0.770828 8.36012 1.32096 9.17143 2.12751C9.64218 2.59588 9.93194 2.59271 10.4035 2.12831C11.6236 0.927216 13.093 0.296108 14.8038 0.272293C16.243 0.252446 17.3481 0.921659 18.1864 2.05368C18.9365 3.06584 19.2533 4.22724 19.3017 5.61647L19.3009 5.61806ZM18.0236 5.50533C17.9879 4.62734 17.7966 3.87556 17.4044 3.18412C16.89 2.27596 16.166 1.65359 15.0808 1.54483C14.6013 1.4972 14.2703 1.71392 14.2298 2.11322C14.1909 2.49427 14.4743 2.73798 14.9379 2.82451C15.2277 2.87849 15.5571 2.97534 15.7619 3.16745C16.0485 3.43577 16.3113 3.78189 16.447 4.14627C16.6233 4.6186 16.6773 5.13937 16.7574 5.64346C16.809 5.96735 16.9996 6.21741 17.298 6.26504C17.5878 6.31109 17.8942 6.1412 17.9808 5.86177C18.0236 5.72364 18.0173 5.57043 18.0244 5.50692L18.0236 5.50533Z" fill="#EE3169"/>
</svg>
