<svg width="12" height="11" viewBox="0 0 12 11" fill="none" xmlns="http://www.w3.org/2000/svg">
<path d="M11.1104 4.24039C11.0306 4.36265 10.942 4.47894 10.8453 4.58838C10.1653 5.25905 9.48201 5.92571 8.79535 6.58838C8.72481 6.65028 8.6722 6.73 8.643 6.81918C8.6138 6.90837 8.6091 7.00374 8.62936 7.09537C8.80136 8.06637 8.96536 9.03938 9.12936 10.0114C9.16538 10.1152 9.16205 10.2287 9.12002 10.3302C9.078 10.4317 9.00019 10.5144 8.90134 10.5624C8.82999 10.5937 8.752 10.6069 8.67432 10.6006C8.59664 10.5943 8.52173 10.5688 8.45636 10.5264L6.05633 9.26437C5.97633 9.22237 5.89434 9.1844 5.81634 9.1384C5.73655 9.08813 5.64415 9.06143 5.54983 9.06143C5.45552 9.06143 5.36315 9.08813 5.28335 9.1384C4.40535 9.6044 3.52536 10.0634 2.64636 10.5264C2.58969 10.5621 2.52637 10.5862 2.46023 10.597C2.3941 10.6078 2.32647 10.6052 2.26135 10.5894C2.159 10.5609 2.0712 10.4948 2.01556 10.4043C1.95992 10.3138 1.94057 10.2056 1.96136 10.1014C2.02036 9.72638 2.08636 9.35337 2.15036 8.97937C2.26103 8.3347 2.372 7.69039 2.48334 7.04639C2.49713 6.96396 2.48917 6.87936 2.46023 6.80096C2.4313 6.72257 2.38239 6.65309 2.31836 6.5994C1.73169 6.03006 1.14601 5.45939 0.561339 4.88739L0.161345 4.49439C0.0916819 4.43814 0.0411274 4.36172 0.0166005 4.2756C-0.00792651 4.18949 -0.00521887 4.09791 0.0243519 4.0134C0.0540006 3.92951 0.107809 3.85627 0.178985 3.80289C0.25016 3.74951 0.335516 3.71835 0.424346 3.71338C1.42435 3.57071 2.42435 3.42572 3.42435 3.27838C3.50881 3.26615 3.5886 3.23201 3.65579 3.17938C3.72298 3.12675 3.77523 3.05747 3.80734 2.97839C4.24801 2.07973 4.69034 1.18238 5.13434 0.286377C5.16678 0.199303 5.22595 0.124742 5.30337 0.0733646C5.3808 0.0219875 5.4725 -0.00354825 5.56534 0.00039709C5.65329 0.00401655 5.73821 0.0335749 5.80939 0.085358C5.88057 0.137141 5.93484 0.208818 5.96536 0.291382C6.31936 1.01138 6.67402 1.73071 7.02936 2.44937C7.12036 2.63337 7.21334 2.81739 7.30234 3.00339C7.33795 3.08151 7.39383 3.14867 7.46417 3.19791C7.53451 3.24714 7.61677 3.27666 7.70236 3.28339C8.70236 3.42672 9.70236 3.57172 10.7024 3.71838C10.7994 3.72958 10.8903 3.77123 10.9622 3.83734C11.0341 3.90346 11.0831 3.99065 11.1024 4.0864L11.1104 4.24039Z" fill="#FFC448"/>
</svg>
